<mxfile host="Electron" agent="Mozilla/5.0 (Windows NT 10.0; Win64; x64) AppleWebKit/537.36 (KHTML, like Gecko) draw.io/24.7.5 Chrome/126.0.6478.183 Electron/31.3.0 Safari/537.36" version="24.7.5">
  <diagram name="Page-1" id="J1abbymZqD5zbGk-1o9p">
    <mxGraphModel dx="5697" dy="3289" grid="1" gridSize="10" guides="1" tooltips="1" connect="1" arrows="1" fold="1" page="1" pageScale="1" pageWidth="1600" pageHeight="900" math="0" shadow="0">
      <root>
        <mxCell id="0" />
        <mxCell id="1" parent="0" />
        <mxCell id="DHNUe8hTvD1fJCvNzbda-1" value="" style="strokeWidth=1;shadow=0;dashed=0;align=center;html=1;shape=mxgraph.mockup.containers.browserWindow;rSize=0;strokeColor=#666666;strokeColor2=#008cff;strokeColor3=#c4c4c4;mainText=,;recursiveResize=0;container=0;movable=1;resizable=1;rotatable=1;deletable=1;editable=1;locked=0;connectable=1;" parent="1" vertex="1">
          <mxGeometry x="10" y="10" width="1580" height="1540" as="geometry" />
        </mxCell>
        <mxCell id="DHNUe8hTvD1fJCvNzbda-2" value="Devflix" style="text;html=1;points=[];align=left;verticalAlign=top;spacingTop=-4;fontSize=45;fontFamily=Verdana;" parent="1" vertex="1">
          <mxGeometry x="60" y="160" width="340" height="50" as="geometry" />
        </mxCell>
        <mxCell id="DHNUe8hTvD1fJCvNzbda-4" value="Page 1" style="strokeWidth=1;shadow=0;dashed=0;align=center;html=1;shape=mxgraph.mockup.containers.anchor;fontSize=17;fontColor=#666666;align=left;whiteSpace=wrap;" parent="1" vertex="1">
          <mxGeometry x="70" y="22" width="110" height="26" as="geometry" />
        </mxCell>
        <mxCell id="DHNUe8hTvD1fJCvNzbda-5" value="https://www.devflix.com/acteur" style="strokeWidth=1;shadow=0;dashed=0;align=center;html=1;shape=mxgraph.mockup.containers.anchor;rSize=0;fontSize=17;fontColor=#666666;align=left;" parent="1" vertex="1">
          <mxGeometry x="140" y="70" width="380" height="26" as="geometry" />
        </mxCell>
        <mxCell id="DHNUe8hTvD1fJCvNzbda-15" value="Mentions Legales" style="fillColor=none;strokeColor=none;html=1;fontColor=#0057D8;align=center;verticalAlign=middle;fontStyle=0;fontSize=17;" parent="1" vertex="1">
          <mxGeometry x="105" y="1450" width="250" height="75" as="geometry" />
        </mxCell>
        <mxCell id="DHNUe8hTvD1fJCvNzbda-16" value="FAQ" style="fillColor=none;strokeColor=none;html=1;fontColor=#0057D8;align=center;verticalAlign=middle;fontStyle=0;fontSize=17;fontFamily=Helvetica;" parent="1" vertex="1">
          <mxGeometry x="495" y="1450" width="250" height="75" as="geometry" />
        </mxCell>
        <mxCell id="DHNUe8hTvD1fJCvNzbda-17" value="Contacts" style="fillColor=none;strokeColor=none;html=1;fontColor=#0057D8;align=center;verticalAlign=middle;fontStyle=0;fontSize=17;fontFamily=Helvetica;" parent="1" vertex="1">
          <mxGeometry x="875" y="1450" width="250" height="75" as="geometry" />
        </mxCell>
        <mxCell id="DHNUe8hTvD1fJCvNzbda-18" value="Carrière&amp;nbsp;" style="fillColor=none;strokeColor=none;html=1;fontColor=#0057D8;align=center;verticalAlign=middle;fontStyle=0;fontSize=17;fontFamily=Helvetica;" parent="1" vertex="1">
          <mxGeometry x="1245" y="1450" width="250" height="75" as="geometry" />
        </mxCell>
        <mxCell id="DHNUe8hTvD1fJCvNzbda-24" value="C49" style="strokeWidth=1;shadow=0;dashed=0;align=center;html=1;shape=mxgraph.mockup.text.callout;linkText=;textSize=17;textColor=#666666;callDir=NE;callStyle=line;fontSize=17;align=right;verticalAlign=top;strokeColor=#005700;fillColor=#008a00;fontColor=#ffffff;" parent="1" vertex="1">
          <mxGeometry x="1540" y="245" width="260" height="105" as="geometry" />
        </mxCell>
        <mxCell id="DHNUe8hTvD1fJCvNzbda-60" value="" style="group" parent="1" vertex="1" connectable="0">
          <mxGeometry x="1040" y="310" width="250" height="50" as="geometry" />
        </mxCell>
        <mxCell id="DHNUe8hTvD1fJCvNzbda-52" value="Option 1" style="strokeWidth=1;shadow=0;dashed=0;align=center;html=1;shape=mxgraph.mockup.forms.comboBox;strokeColor=#999999;fillColor=#ddeeff;align=left;fillColor2=#aaddff;mainText=;fontColor=#666666;fontSize=17;spacingLeft=3;" parent="DHNUe8hTvD1fJCvNzbda-60" vertex="1">
          <mxGeometry y="18.75" width="250" height="31.25" as="geometry" />
        </mxCell>
        <mxCell id="DHNUe8hTvD1fJCvNzbda-59" value="Genre" style="text;html=1;align=center;verticalAlign=middle;whiteSpace=wrap;rounded=0;fontSize=17;" parent="DHNUe8hTvD1fJCvNzbda-60" vertex="1">
          <mxGeometry width="130" height="18.75" as="geometry" />
        </mxCell>
        <mxCell id="DHNUe8hTvD1fJCvNzbda-68" value="" style="group" parent="1" vertex="1" connectable="0">
          <mxGeometry x="1290" y="310" width="250" height="50" as="geometry" />
        </mxCell>
        <mxCell id="DHNUe8hTvD1fJCvNzbda-69" value="Option 1" style="strokeWidth=1;shadow=0;dashed=0;align=center;html=1;shape=mxgraph.mockup.forms.comboBox;strokeColor=#999999;fillColor=#ddeeff;align=left;fillColor2=#aaddff;mainText=;fontColor=#666666;fontSize=17;spacingLeft=3;" parent="DHNUe8hTvD1fJCvNzbda-68" vertex="1">
          <mxGeometry y="18.75" width="250" height="31.25" as="geometry" />
        </mxCell>
        <mxCell id="DHNUe8hTvD1fJCvNzbda-70" value="Nationalité" style="text;html=1;align=center;verticalAlign=middle;whiteSpace=wrap;rounded=0;fontSize=17;" parent="DHNUe8hTvD1fJCvNzbda-68" vertex="1">
          <mxGeometry width="130" height="18.75" as="geometry" />
        </mxCell>
        <mxCell id="DHNUe8hTvD1fJCvNzbda-74" value="Nom de l&#39;acteur" style="html=1;shadow=0;dashed=0;shape=mxgraph.bootstrap.rrect;rSize=5;strokeColor=#DFDFDF;html=1;whiteSpace=wrap;fillColor=#ffffff;fontColor=#000000;verticalAlign=bottom;align=left;spacing=20;fontSize=17;aspect=fixed;" parent="1" vertex="1">
          <mxGeometry x="75" y="500" width="249.38" height="380" as="geometry" />
        </mxCell>
        <mxCell id="DHNUe8hTvD1fJCvNzbda-75" value="Photo de l&#39;acteur" style="html=1;shadow=0;dashed=0;shape=mxgraph.bootstrap.topButton;rSize=5;perimeter=none;whiteSpace=wrap;fillColor=#868E96;strokeColor=#DFDFDF;fontColor=#DEE2E6;resizeWidth=1;fontSize=18;" parent="DHNUe8hTvD1fJCvNzbda-74" vertex="1">
          <mxGeometry width="249.38" height="310" relative="1" as="geometry" />
        </mxCell>
        <mxCell id="DHNUe8hTvD1fJCvNzbda-76" value="" style="group" parent="1" vertex="1" connectable="0">
          <mxGeometry x="50" y="425" width="250" height="50" as="geometry" />
        </mxCell>
        <mxCell id="DHNUe8hTvD1fJCvNzbda-77" value="Option 1" style="strokeWidth=1;shadow=0;dashed=0;align=center;html=1;shape=mxgraph.mockup.forms.comboBox;strokeColor=#999999;fillColor=#ddeeff;align=left;fillColor2=#aaddff;mainText=;fontColor=#666666;fontSize=17;spacingLeft=3;" parent="DHNUe8hTvD1fJCvNzbda-76" vertex="1">
          <mxGeometry y="18.75" width="250" height="31.25" as="geometry" />
        </mxCell>
        <mxCell id="DHNUe8hTvD1fJCvNzbda-78" value="Trier par" style="text;html=1;align=center;verticalAlign=middle;whiteSpace=wrap;rounded=0;fontSize=17;" parent="DHNUe8hTvD1fJCvNzbda-76" vertex="1">
          <mxGeometry width="130" height="18.75" as="geometry" />
        </mxCell>
        <mxCell id="DHNUe8hTvD1fJCvNzbda-81" value="Nom de l&#39;acteur" style="html=1;shadow=0;dashed=0;shape=mxgraph.bootstrap.rrect;rSize=5;strokeColor=#DFDFDF;html=1;whiteSpace=wrap;fillColor=#ffffff;fontColor=#000000;verticalAlign=bottom;align=left;spacing=20;fontSize=17;aspect=fixed;" parent="1" vertex="1">
          <mxGeometry x="375" y="500" width="249.38" height="380" as="geometry" />
        </mxCell>
        <mxCell id="DHNUe8hTvD1fJCvNzbda-82" value="Photo de l&#39;acteur" style="html=1;shadow=0;dashed=0;shape=mxgraph.bootstrap.topButton;rSize=5;perimeter=none;whiteSpace=wrap;fillColor=#868E96;strokeColor=#DFDFDF;fontColor=#DEE2E6;resizeWidth=1;fontSize=18;" parent="DHNUe8hTvD1fJCvNzbda-81" vertex="1">
          <mxGeometry width="249.38" height="310" relative="1" as="geometry" />
        </mxCell>
        <mxCell id="DHNUe8hTvD1fJCvNzbda-83" value="Nom de l&#39;acteur" style="html=1;shadow=0;dashed=0;shape=mxgraph.bootstrap.rrect;rSize=5;strokeColor=#DFDFDF;html=1;whiteSpace=wrap;fillColor=#ffffff;fontColor=#000000;verticalAlign=bottom;align=left;spacing=20;fontSize=17;aspect=fixed;" parent="1" vertex="1">
          <mxGeometry x="675" y="500" width="249.38" height="380" as="geometry" />
        </mxCell>
        <mxCell id="DHNUe8hTvD1fJCvNzbda-84" value="Photo de l&#39;acteur" style="html=1;shadow=0;dashed=0;shape=mxgraph.bootstrap.topButton;rSize=5;perimeter=none;whiteSpace=wrap;fillColor=#868E96;strokeColor=#DFDFDF;fontColor=#DEE2E6;resizeWidth=1;fontSize=18;" parent="DHNUe8hTvD1fJCvNzbda-83" vertex="1">
          <mxGeometry width="249.38" height="310" relative="1" as="geometry" />
        </mxCell>
        <mxCell id="DHNUe8hTvD1fJCvNzbda-85" value="Nom de l&#39;acteur" style="html=1;shadow=0;dashed=0;shape=mxgraph.bootstrap.rrect;rSize=5;strokeColor=#DFDFDF;html=1;whiteSpace=wrap;fillColor=#ffffff;fontColor=#000000;verticalAlign=bottom;align=left;spacing=20;fontSize=17;aspect=fixed;" parent="1" vertex="1">
          <mxGeometry x="975" y="500" width="249.38" height="380" as="geometry" />
        </mxCell>
        <mxCell id="DHNUe8hTvD1fJCvNzbda-86" value="Photo de l&#39;acteur" style="html=1;shadow=0;dashed=0;shape=mxgraph.bootstrap.topButton;rSize=5;perimeter=none;whiteSpace=wrap;fillColor=#868E96;strokeColor=#DFDFDF;fontColor=#DEE2E6;resizeWidth=1;fontSize=18;" parent="DHNUe8hTvD1fJCvNzbda-85" vertex="1">
          <mxGeometry width="249.38" height="310" relative="1" as="geometry" />
        </mxCell>
        <mxCell id="DHNUe8hTvD1fJCvNzbda-87" value="Nom de l&#39;acteur" style="html=1;shadow=0;dashed=0;shape=mxgraph.bootstrap.rrect;rSize=5;strokeColor=#DFDFDF;html=1;whiteSpace=wrap;fillColor=#ffffff;fontColor=#000000;verticalAlign=bottom;align=left;spacing=20;fontSize=17;aspect=fixed;" parent="1" vertex="1">
          <mxGeometry x="1275.62" y="500" width="249.38" height="380" as="geometry" />
        </mxCell>
        <mxCell id="DHNUe8hTvD1fJCvNzbda-88" value="Photo de l&#39;acteur" style="html=1;shadow=0;dashed=0;shape=mxgraph.bootstrap.topButton;rSize=5;perimeter=none;whiteSpace=wrap;fillColor=#868E96;strokeColor=#DFDFDF;fontColor=#DEE2E6;resizeWidth=1;fontSize=18;" parent="DHNUe8hTvD1fJCvNzbda-87" vertex="1">
          <mxGeometry width="249.38" height="310" relative="1" as="geometry" />
        </mxCell>
        <mxCell id="DHNUe8hTvD1fJCvNzbda-89" value="Nom de l&#39;acteur" style="html=1;shadow=0;dashed=0;shape=mxgraph.bootstrap.rrect;rSize=5;strokeColor=#DFDFDF;html=1;whiteSpace=wrap;fillColor=#ffffff;fontColor=#000000;verticalAlign=bottom;align=left;spacing=20;fontSize=17;aspect=fixed;" parent="1" vertex="1">
          <mxGeometry x="75" y="920" width="249.38" height="380" as="geometry" />
        </mxCell>
        <mxCell id="DHNUe8hTvD1fJCvNzbda-90" value="Photo de l&#39;acteur" style="html=1;shadow=0;dashed=0;shape=mxgraph.bootstrap.topButton;rSize=5;perimeter=none;whiteSpace=wrap;fillColor=#868E96;strokeColor=#DFDFDF;fontColor=#DEE2E6;resizeWidth=1;fontSize=18;" parent="DHNUe8hTvD1fJCvNzbda-89" vertex="1">
          <mxGeometry width="249.38" height="310" relative="1" as="geometry" />
        </mxCell>
        <mxCell id="DHNUe8hTvD1fJCvNzbda-91" value="Nom de l&#39;acteur" style="html=1;shadow=0;dashed=0;shape=mxgraph.bootstrap.rrect;rSize=5;strokeColor=#DFDFDF;html=1;whiteSpace=wrap;fillColor=#ffffff;fontColor=#000000;verticalAlign=bottom;align=left;spacing=20;fontSize=17;aspect=fixed;" parent="1" vertex="1">
          <mxGeometry x="375" y="920" width="249.38" height="380" as="geometry" />
        </mxCell>
        <mxCell id="DHNUe8hTvD1fJCvNzbda-92" value="Photo de l&#39;acteur" style="html=1;shadow=0;dashed=0;shape=mxgraph.bootstrap.topButton;rSize=5;perimeter=none;whiteSpace=wrap;fillColor=#868E96;strokeColor=#DFDFDF;fontColor=#DEE2E6;resizeWidth=1;fontSize=18;" parent="DHNUe8hTvD1fJCvNzbda-91" vertex="1">
          <mxGeometry width="249.38" height="310" relative="1" as="geometry" />
        </mxCell>
        <mxCell id="DHNUe8hTvD1fJCvNzbda-93" value="Nom de l&#39;acteur" style="html=1;shadow=0;dashed=0;shape=mxgraph.bootstrap.rrect;rSize=5;strokeColor=#DFDFDF;html=1;whiteSpace=wrap;fillColor=#ffffff;fontColor=#000000;verticalAlign=bottom;align=left;spacing=20;fontSize=17;aspect=fixed;" parent="1" vertex="1">
          <mxGeometry x="675" y="920" width="249.38" height="380" as="geometry" />
        </mxCell>
        <mxCell id="DHNUe8hTvD1fJCvNzbda-94" value="Photo de l&#39;acteur" style="html=1;shadow=0;dashed=0;shape=mxgraph.bootstrap.topButton;rSize=5;perimeter=none;whiteSpace=wrap;fillColor=#868E96;strokeColor=#DFDFDF;fontColor=#DEE2E6;resizeWidth=1;fontSize=18;" parent="DHNUe8hTvD1fJCvNzbda-93" vertex="1">
          <mxGeometry width="249.38" height="310" relative="1" as="geometry" />
        </mxCell>
        <mxCell id="DHNUe8hTvD1fJCvNzbda-95" value="Nom de l&#39;acteur" style="html=1;shadow=0;dashed=0;shape=mxgraph.bootstrap.rrect;rSize=5;strokeColor=#DFDFDF;html=1;whiteSpace=wrap;fillColor=#ffffff;fontColor=#000000;verticalAlign=bottom;align=left;spacing=20;fontSize=17;aspect=fixed;" parent="1" vertex="1">
          <mxGeometry x="975" y="920" width="249.38" height="380" as="geometry" />
        </mxCell>
        <mxCell id="DHNUe8hTvD1fJCvNzbda-96" value="Photo de l&#39;acteur" style="html=1;shadow=0;dashed=0;shape=mxgraph.bootstrap.topButton;rSize=5;perimeter=none;whiteSpace=wrap;fillColor=#868E96;strokeColor=#DFDFDF;fontColor=#DEE2E6;resizeWidth=1;fontSize=18;" parent="DHNUe8hTvD1fJCvNzbda-95" vertex="1">
          <mxGeometry width="249.38" height="310" relative="1" as="geometry" />
        </mxCell>
        <mxCell id="DHNUe8hTvD1fJCvNzbda-97" value="Nom de l&#39;acteur" style="html=1;shadow=0;dashed=0;shape=mxgraph.bootstrap.rrect;rSize=5;strokeColor=#DFDFDF;html=1;whiteSpace=wrap;fillColor=#ffffff;fontColor=#000000;verticalAlign=bottom;align=left;spacing=20;fontSize=17;aspect=fixed;" parent="1" vertex="1">
          <mxGeometry x="1275.62" y="920" width="249.38" height="380" as="geometry" />
        </mxCell>
        <mxCell id="DHNUe8hTvD1fJCvNzbda-98" value="Photo de l&#39;acteur" style="html=1;shadow=0;dashed=0;shape=mxgraph.bootstrap.topButton;rSize=5;perimeter=none;whiteSpace=wrap;fillColor=#868E96;strokeColor=#DFDFDF;fontColor=#DEE2E6;resizeWidth=1;fontSize=18;" parent="DHNUe8hTvD1fJCvNzbda-97" vertex="1">
          <mxGeometry width="249.38" height="310" relative="1" as="geometry" />
        </mxCell>
        <mxCell id="DHNUe8hTvD1fJCvNzbda-42" value="Carte lien&lt;div&gt;vers l&#39;acteur&lt;/div&gt;" style="strokeWidth=1;shadow=0;dashed=0;align=center;html=1;shape=mxgraph.mockup.text.callout;linkText=;textSize=17;textColor=#666666;callDir=SW;callStyle=line;fontSize=17;fontColor=#ffffff;align=left;verticalAlign=bottom;strokeColor=#001DBC;fillColor=#0050ef;" parent="1" vertex="1">
          <mxGeometry x="-100" y="1070" width="230" height="70" as="geometry" />
        </mxCell>
        <mxCell id="DHNUe8hTvD1fJCvNzbda-43" value="C48" style="strokeWidth=1;shadow=0;dashed=0;align=right;html=1;shape=mxgraph.mockup.text.callout;linkText=;textSize=17;textColor=#666666;callDir=NW;callStyle=line;fontSize=17;fontColor=#ffffff;align=left;verticalAlign=top;strokeColor=#005700;fontFamily=Helvetica;fillColor=#008a00;" parent="1" vertex="1">
          <mxGeometry x="-70" y="990" width="200" height="80" as="geometry" />
        </mxCell>
        <mxCell id="DHNUe8hTvD1fJCvNzbda-99" value="C50" style="strokeWidth=1;shadow=0;dashed=0;align=right;html=1;shape=mxgraph.mockup.text.callout;linkText=;textSize=17;textColor=#666666;callDir=NW;callStyle=line;fontSize=17;fontColor=#ffffff;align=left;verticalAlign=top;strokeColor=#005700;fontFamily=Helvetica;fillColor=#008a00;" parent="1" vertex="1">
          <mxGeometry x="-150" y="380" width="200" height="80" as="geometry" />
        </mxCell>
        <mxCell id="DHNUe8hTvD1fJCvNzbda-101" value="C47" style="strokeWidth=1;shadow=0;dashed=0;align=right;html=1;shape=mxgraph.mockup.text.callout;linkText=;textSize=17;textColor=#666666;callDir=NW;callStyle=line;fontSize=17;fontColor=#ffffff;align=left;verticalAlign=top;strokeColor=#005700;fontFamily=Helvetica;fillColor=#008a00;" parent="1" vertex="1">
          <mxGeometry x="670" y="270" width="200" height="80" as="geometry" />
        </mxCell>
        <mxCell id="XWkbfgiY5kfWBxegu6R5-1" value="" style="group;movable=1;resizable=1;rotatable=1;deletable=1;editable=1;locked=0;connectable=1;" parent="1" vertex="1" connectable="0">
          <mxGeometry x="760" y="-80" width="930" height="280" as="geometry" />
        </mxCell>
        <mxCell id="XWkbfgiY5kfWBxegu6R5-2" value="" style="swimlane;shape=mxgraph.bootstrap.anchor;strokeColor=#999999;fillColor=#ffffff;fontColor=#666666;childLayout=stackLayout;horizontal=0;startSize=0;horizontalStack=1;resizeParent=1;resizeParentMax=0;resizeLast=0;collapsible=0;marginBottom=0;whiteSpace=wrap;html=1;" parent="XWkbfgiY5kfWBxegu6R5-1" vertex="1">
          <mxGeometry x="20" y="230" width="720" height="30" as="geometry" />
        </mxCell>
        <mxCell id="XWkbfgiY5kfWBxegu6R5-3" value="Catalogue" style="text;strokeColor=inherit;align=center;verticalAlign=middle;spacingLeft=10;spacingRight=10;overflow=hidden;points=[[0,0.5],[1,0.5]];portConstraint=eastwest;rotatable=0;whiteSpace=wrap;html=1;fillColor=inherit;fontColor=inherit;fontSize=17;" parent="XWkbfgiY5kfWBxegu6R5-2" vertex="1">
          <mxGeometry width="120" height="30" as="geometry" />
        </mxCell>
        <mxCell id="XWkbfgiY5kfWBxegu6R5-4" value="Acteurs" style="text;strokeColor=inherit;align=center;verticalAlign=middle;spacingLeft=10;spacingRight=10;overflow=hidden;points=[[0,0.5],[1,0.5]];portConstraint=eastwest;rotatable=0;whiteSpace=wrap;html=1;fillColor=inherit;fontColor=inherit;fontSize=17;" parent="XWkbfgiY5kfWBxegu6R5-2" vertex="1">
          <mxGeometry x="120" width="120" height="30" as="geometry" />
        </mxCell>
        <mxCell id="XWkbfgiY5kfWBxegu6R5-5" value="Mon compte" style="text;strokeColor=inherit;align=center;verticalAlign=middle;spacingLeft=10;spacingRight=10;overflow=hidden;points=[[0,0.5],[1,0.5]];portConstraint=eastwest;rotatable=0;whiteSpace=wrap;html=1;fillColor=inherit;fontColor=inherit;fontSize=17;" parent="XWkbfgiY5kfWBxegu6R5-2" vertex="1">
          <mxGeometry x="240" width="120" height="30" as="geometry" />
        </mxCell>
        <mxCell id="XWkbfgiY5kfWBxegu6R5-6" value="Utilisateurs" style="text;strokeColor=inherit;align=center;verticalAlign=middle;spacingLeft=10;spacingRight=10;overflow=hidden;points=[[0,0.5],[1,0.5]];portConstraint=eastwest;rotatable=0;whiteSpace=wrap;html=1;fillColor=inherit;fontColor=inherit;fontSize=17;" parent="XWkbfgiY5kfWBxegu6R5-2" vertex="1">
          <mxGeometry x="360" width="120" height="30" as="geometry" />
        </mxCell>
        <mxCell id="XWkbfgiY5kfWBxegu6R5-7" value="Locations" style="text;strokeColor=#23445d;align=center;verticalAlign=middle;spacingLeft=10;spacingRight=10;overflow=hidden;points=[[0,0.5],[1,0.5]];portConstraint=eastwest;rotatable=0;whiteSpace=wrap;html=1;fillColor=#bac8d3;fontSize=17;" parent="XWkbfgiY5kfWBxegu6R5-2" vertex="1">
          <mxGeometry x="480" width="120" height="30" as="geometry" />
        </mxCell>
        <mxCell id="XWkbfgiY5kfWBxegu6R5-8" value="Déconnexion&amp;nbsp;" style="text;strokeColor=#6F0000;align=center;verticalAlign=middle;spacingLeft=10;spacingRight=10;overflow=hidden;points=[[0,0.5],[1,0.5]];portConstraint=eastwest;rotatable=0;whiteSpace=wrap;html=1;fillColor=#a20025;fontColor=#ffffff;fontSize=17;" parent="XWkbfgiY5kfWBxegu6R5-2" vertex="1">
          <mxGeometry x="600" width="120" height="30" as="geometry" />
        </mxCell>
        <mxCell id="XWkbfgiY5kfWBxegu6R5-9" value="C4" style="strokeWidth=1;shadow=0;dashed=0;align=center;html=1;shape=mxgraph.mockup.text.callout;linkText=;textSize=17;textColor=#666666;callDir=NE;callStyle=line;fontSize=17;align=right;verticalAlign=top;strokeColor=#005700;fillColor=#008a00;fontColor=#ffffff;" parent="XWkbfgiY5kfWBxegu6R5-1" vertex="1">
          <mxGeometry x="200" width="160" height="230" as="geometry" />
        </mxCell>
        <mxCell id="XWkbfgiY5kfWBxegu6R5-10" value="C1" style="strokeWidth=1;shadow=0;dashed=0;align=center;html=1;shape=mxgraph.mockup.text.callout;linkText=;textSize=17;textColor=#666666;callDir=NE;callStyle=line;fontSize=17;align=right;verticalAlign=top;strokeColor=#005700;fillColor=#008a00;fontColor=#ffffff;" parent="XWkbfgiY5kfWBxegu6R5-1" vertex="1">
          <mxGeometry x="80" width="160" height="230" as="geometry" />
        </mxCell>
        <mxCell id="XWkbfgiY5kfWBxegu6R5-11" value="C17" style="strokeWidth=1;shadow=0;dashed=0;align=center;html=1;shape=mxgraph.mockup.text.callout;linkText=;textSize=17;textColor=#666666;callDir=NE;callStyle=line;fontSize=17;align=right;verticalAlign=top;strokeColor=#005700;fillColor=#008a00;fontColor=#ffffff;" parent="XWkbfgiY5kfWBxegu6R5-1" vertex="1">
          <mxGeometry x="320" width="160" height="230" as="geometry" />
        </mxCell>
        <mxCell id="XWkbfgiY5kfWBxegu6R5-12" value="C19" style="strokeWidth=1;shadow=0;dashed=0;align=center;html=1;shape=mxgraph.mockup.text.callout;linkText=;textSize=17;textColor=#666666;callDir=NE;callStyle=line;fontSize=17;align=right;verticalAlign=top;strokeColor=#005700;fillColor=#008a00;fontColor=#ffffff;" parent="XWkbfgiY5kfWBxegu6R5-1" vertex="1">
          <mxGeometry x="560" width="160" height="230" as="geometry" />
        </mxCell>
        <mxCell id="XWkbfgiY5kfWBxegu6R5-13" value="" style="verticalLabelPosition=bottom;shadow=0;dashed=0;align=center;html=1;verticalAlign=top;strokeWidth=1;shape=mxgraph.mockup.misc.shoppingCart;strokeColor=#999999;" parent="XWkbfgiY5kfWBxegu6R5-1" vertex="1">
          <mxGeometry x="760" y="220" width="50" height="50" as="geometry" />
        </mxCell>
        <mxCell id="XWkbfgiY5kfWBxegu6R5-14" value="C46" style="strokeWidth=1;shadow=0;dashed=0;align=center;html=1;shape=mxgraph.mockup.text.callout;linkText=;textSize=17;textColor=#666666;callDir=NE;callStyle=line;fontSize=17;align=right;verticalAlign=top;strokeColor=#005700;fillColor=#008a00;fontColor=#ffffff;" parent="XWkbfgiY5kfWBxegu6R5-1" vertex="1">
          <mxGeometry x="680" width="160" height="230" as="geometry" />
        </mxCell>
        <mxCell id="XWkbfgiY5kfWBxegu6R5-15" value="C9" style="strokeWidth=1;shadow=0;dashed=0;align=center;html=1;shape=mxgraph.mockup.text.callout;linkText=;textSize=17;textColor=#666666;callDir=NE;callStyle=line;fontSize=17;align=right;verticalAlign=top;strokeColor=#005700;fillColor=#008a00;fontColor=#ffffff;container=0;" parent="XWkbfgiY5kfWBxegu6R5-1" vertex="1">
          <mxGeometry x="770" width="160" height="230" as="geometry" />
        </mxCell>
        <mxCell id="XWkbfgiY5kfWBxegu6R5-16" value="C42" style="strokeWidth=1;shadow=0;dashed=0;align=center;html=1;shape=mxgraph.mockup.text.callout;linkText=;textSize=17;textColor=#666666;callDir=NE;callStyle=line;fontSize=17;align=right;verticalAlign=top;strokeColor=#005700;fillColor=#008a00;fontColor=#ffffff;" parent="XWkbfgiY5kfWBxegu6R5-1" vertex="1">
          <mxGeometry x="433" y="1" width="160" height="230" as="geometry" />
        </mxCell>
        <mxCell id="XWkbfgiY5kfWBxegu6R5-17" value="&lt;font style=&quot;font-size: 17px;&quot;&gt;Rechercher&lt;/font&gt;" style="strokeWidth=1;shadow=0;dashed=0;align=center;html=1;shape=mxgraph.mockup.forms.searchBox;strokeColor=#999999;mainText=;strokeColor2=#008cff;fontColor=#666666;fontSize=17;align=left;spacingLeft=3;whiteSpace=wrap;" parent="1" vertex="1">
          <mxGeometry x="850" y="330" width="150" height="30" as="geometry" />
        </mxCell>
        <mxCell id="ehVZMHzYttzxntxuiKFz-1" value="&lt;font style=&quot;font-size: 24px;&quot;&gt;&amp;nbsp; &amp;nbsp;Vue : Acteurs&lt;br&gt;&amp;nbsp; &amp;nbsp;Auteur : Mickael Francois&lt;br&gt;&amp;nbsp; &amp;nbsp;Date de création : 2024-08-01&lt;br&gt;&amp;nbsp; &amp;nbsp;Date mise à jour : 2024-08-12&lt;/font&gt;" style="rounded=0;whiteSpace=wrap;html=1;align=left;fillColor=#4D4D4D;strokeColor=#000000;" vertex="1" parent="1">
          <mxGeometry y="-150" width="580" height="150" as="geometry" />
        </mxCell>
        <mxCell id="ehVZMHzYttzxntxuiKFz-2" value="&amp;nbsp; &amp;nbsp;Ajouter un acteur" style="rounded=1;align=left;fillColor=#60a917;strokeColor=#2D7600;html=1;fontColor=#ffffff;fontSize=17;spacingLeft=26;" vertex="1" parent="1">
          <mxGeometry x="50" y="350" width="190" height="63" as="geometry" />
        </mxCell>
        <mxCell id="ehVZMHzYttzxntxuiKFz-4" value="" style="shape=cross;whiteSpace=wrap;html=1;" vertex="1" parent="1">
          <mxGeometry x="55" y="371.5" width="20" height="20" as="geometry" />
        </mxCell>
      </root>
    </mxGraphModel>
  </diagram>
</mxfile>
